<svg width="112" height="23" viewBox="0 0 112 23" fill="none" xmlns="http://www.w3.org/2000/svg">
<path d="M20.11 22L20.08 8.08L13.18 19.6H11.44L4.54 8.26V22H0.82V0.999999H4.03L12.37 14.92L20.56 0.999999H23.77L23.8 22H20.11ZM39.2823 22.3C37.1423 22.3 35.2123 21.84 33.4923 20.92C31.7723 19.98 30.4223 18.69 29.4423 17.05C28.4623 15.39 27.9723 13.54 27.9723 11.5C27.9723 9.46 28.4623 7.62 29.4423 5.98C30.4223 4.32 31.7723 3.03 33.4923 2.11C35.2123 1.17 37.1423 0.699999 39.2823 0.699999C41.4223 0.699999 43.3523 1.17 45.0723 2.11C46.7923 3.03 48.1423 4.31 49.1223 5.95C50.1023 7.59 50.5923 9.44 50.5923 11.5C50.5923 13.56 50.1023 15.41 49.1223 17.05C48.1423 18.69 46.7923 19.98 45.0723 20.92C43.3523 21.84 41.4223 22.3 39.2823 22.3ZM39.2823 18.88C40.6823 18.88 41.9423 18.57 43.0623 17.95C44.1823 17.31 45.0623 16.43 45.7023 15.31C46.3423 14.17 46.6623 12.9 46.6623 11.5C46.6623 10.1 46.3423 8.84 45.7023 7.72C45.0623 6.58 44.1823 5.7 43.0623 5.08C41.9423 4.44 40.6823 4.12 39.2823 4.12C37.8823 4.12 36.6223 4.44 35.5023 5.08C34.3823 5.7 33.5023 6.58 32.8623 7.72C32.2223 8.84 31.9023 10.1 31.9023 11.5C31.9023 12.9 32.2223 14.17 32.8623 15.31C33.5023 16.43 34.3823 17.31 35.5023 17.95C36.6223 18.57 37.8823 18.88 39.2823 18.88ZM73.2524 0.999999L64.1024 22H60.2624L51.0824 0.999999H55.3124L62.3024 17.2L69.3524 0.999999H73.2524ZM91.2184 18.73V22H75.4684V0.999999H90.7984V4.27H79.3684V9.73H89.5084V12.94H79.3684V18.73H91.2184ZM111.316 18.73V22H95.5661V0.999999H110.896V4.27H99.4661V9.73H109.606V12.94H99.4661V18.73H111.316Z" fill="#333333"/>
</svg>
